<mxfile host="app.diagrams.net" modified="2022-08-26T00:35:42.729Z" agent="5.0 (Windows NT 10.0; Win64; x64) AppleWebKit/537.36 (KHTML, like Gecko) Chrome/104.0.0.0 Safari/537.36" etag="BmAOUqzKlZH9Wgsz6H1E" version="20.2.6" type="github">
  <diagram id="CM0zEM6VYh-hl10GF8bd" name="SequenceDiagram">
    <mxGraphModel dx="1610" dy="748" grid="1" gridSize="10" guides="1" tooltips="1" connect="1" arrows="1" fold="1" page="1" pageScale="1" pageWidth="850" pageHeight="1100" math="0" shadow="0">
      <root>
        <mxCell id="0" />
        <mxCell id="1" parent="0" />
        <mxCell id="JCvuvtyCM9HkF3KaidBr-1" value="AssignTutorCTRL" style="shape=umlLifeline;perimeter=lifelinePerimeter;container=1;collapsible=0;recursiveResize=0;rounded=0;shadow=0;strokeWidth=1;" vertex="1" parent="1">
          <mxGeometry x="320" y="227.5" width="100" height="1092.5" as="geometry" />
        </mxCell>
        <mxCell id="JCvuvtyCM9HkF3KaidBr-2" value="" style="points=[];perimeter=orthogonalPerimeter;rounded=0;shadow=0;strokeWidth=1;" vertex="1" parent="JCvuvtyCM9HkF3KaidBr-1">
          <mxGeometry x="45" y="140" width="10" height="40" as="geometry" />
        </mxCell>
        <mxCell id="JCvuvtyCM9HkF3KaidBr-3" value="" style="points=[];perimeter=orthogonalPerimeter;rounded=0;shadow=0;strokeWidth=1;" vertex="1" parent="JCvuvtyCM9HkF3KaidBr-1">
          <mxGeometry x="45" y="245" width="10" height="50" as="geometry" />
        </mxCell>
        <mxCell id="JCvuvtyCM9HkF3KaidBr-4" value="alt" style="shape=umlFrame;whiteSpace=wrap;html=1;width=40;height=20;boundedLbl=1;verticalAlign=middle;align=left;spacingLeft=5;strokeColor=default;gradientColor=none;" vertex="1" parent="JCvuvtyCM9HkF3KaidBr-1">
          <mxGeometry x="-250" y="185" width="330" height="200" as="geometry" />
        </mxCell>
        <mxCell id="JCvuvtyCM9HkF3KaidBr-5" value="" style="endArrow=none;html=1;rounded=0;entryX=1;entryY=0.568;entryDx=0;entryDy=0;entryPerimeter=0;exitX=0.005;exitY=0.561;exitDx=0;exitDy=0;exitPerimeter=0;" edge="1" parent="JCvuvtyCM9HkF3KaidBr-1" source="JCvuvtyCM9HkF3KaidBr-4" target="JCvuvtyCM9HkF3KaidBr-4">
          <mxGeometry width="50" height="50" relative="1" as="geometry">
            <mxPoint x="185" y="205" as="sourcePoint" />
            <mxPoint x="235" y="155" as="targetPoint" />
          </mxGeometry>
        </mxCell>
        <mxCell id="JCvuvtyCM9HkF3KaidBr-6" value="" style="points=[];perimeter=orthogonalPerimeter;rounded=0;shadow=0;strokeWidth=1;" vertex="1" parent="JCvuvtyCM9HkF3KaidBr-1">
          <mxGeometry x="45" y="450" width="10" height="55" as="geometry" />
        </mxCell>
        <mxCell id="JCvuvtyCM9HkF3KaidBr-7" value="&lt;span style=&quot;font-size: 11px; background-color: rgb(255, 255, 255);&quot;&gt;Account!=&quot;exist&quot;&lt;/span&gt;" style="text;html=1;strokeColor=none;fillColor=none;align=center;verticalAlign=middle;whiteSpace=wrap;rounded=0;" vertex="1" parent="JCvuvtyCM9HkF3KaidBr-1">
          <mxGeometry x="-220" y="302.5" width="60" height="30" as="geometry" />
        </mxCell>
        <mxCell id="JCvuvtyCM9HkF3KaidBr-8" value="" style="points=[];perimeter=orthogonalPerimeter;rounded=0;shadow=0;strokeWidth=1;" vertex="1" parent="JCvuvtyCM9HkF3KaidBr-1">
          <mxGeometry x="45" y="332.5" width="10" height="50" as="geometry" />
        </mxCell>
        <mxCell id="JCvuvtyCM9HkF3KaidBr-9" value="" style="points=[];perimeter=orthogonalPerimeter;rounded=0;shadow=0;strokeWidth=1;" vertex="1" parent="JCvuvtyCM9HkF3KaidBr-1">
          <mxGeometry x="45" y="632.5" width="10" height="50" as="geometry" />
        </mxCell>
        <mxCell id="JCvuvtyCM9HkF3KaidBr-10" value="" style="points=[];perimeter=orthogonalPerimeter;rounded=0;shadow=0;strokeWidth=1;" vertex="1" parent="JCvuvtyCM9HkF3KaidBr-1">
          <mxGeometry x="45" y="812.5" width="10" height="50" as="geometry" />
        </mxCell>
        <mxCell id="JCvuvtyCM9HkF3KaidBr-11" value="" style="points=[];perimeter=orthogonalPerimeter;rounded=0;shadow=0;strokeWidth=1;" vertex="1" parent="JCvuvtyCM9HkF3KaidBr-1">
          <mxGeometry x="45" y="912.5" width="10" height="50" as="geometry" />
        </mxCell>
        <mxCell id="JCvuvtyCM9HkF3KaidBr-12" value="" style="points=[];perimeter=orthogonalPerimeter;rounded=0;shadow=0;strokeWidth=1;" vertex="1" parent="JCvuvtyCM9HkF3KaidBr-1">
          <mxGeometry x="45" y="1002.5" width="10" height="50" as="geometry" />
        </mxCell>
        <mxCell id="JCvuvtyCM9HkF3KaidBr-13" value="" style="points=[];perimeter=orthogonalPerimeter;rounded=0;shadow=0;strokeWidth=1;" vertex="1" parent="JCvuvtyCM9HkF3KaidBr-1">
          <mxGeometry x="45" y="712.5" width="10" height="50" as="geometry" />
        </mxCell>
        <mxCell id="JCvuvtyCM9HkF3KaidBr-14" value="VerifyClassSelected" style="verticalAlign=bottom;endArrow=block;shadow=0;strokeWidth=1;" edge="1" parent="JCvuvtyCM9HkF3KaidBr-1">
          <mxGeometry relative="1" as="geometry">
            <mxPoint x="-119.50000000000023" y="712.5" as="sourcePoint" />
            <mxPoint x="50" y="712.5" as="targetPoint" />
          </mxGeometry>
        </mxCell>
        <mxCell id="JCvuvtyCM9HkF3KaidBr-15" value="VerifyTutorSelected" style="verticalAlign=bottom;endArrow=block;shadow=0;strokeWidth=1;" edge="1" parent="JCvuvtyCM9HkF3KaidBr-1">
          <mxGeometry relative="1" as="geometry">
            <mxPoint x="-124.50000000000023" y="552.5" as="sourcePoint" />
            <mxPoint x="45" y="552.5" as="targetPoint" />
          </mxGeometry>
        </mxCell>
        <mxCell id="JCvuvtyCM9HkF3KaidBr-16" value="" style="points=[];perimeter=orthogonalPerimeter;rounded=0;shadow=0;strokeWidth=1;" vertex="1" parent="JCvuvtyCM9HkF3KaidBr-1">
          <mxGeometry x="45" y="552.5" width="10" height="55" as="geometry" />
        </mxCell>
        <mxCell id="JCvuvtyCM9HkF3KaidBr-17" value=":AdminStaff" style="shape=umlActor;verticalLabelPosition=bottom;verticalAlign=top;html=1;strokeColor=default;gradientColor=none;" vertex="1" parent="1">
          <mxGeometry x="50" y="200" width="30" height="60" as="geometry" />
        </mxCell>
        <mxCell id="JCvuvtyCM9HkF3KaidBr-18" value="" style="points=[];perimeter=orthogonalPerimeter;rounded=0;shadow=0;strokeWidth=1;" vertex="1" parent="1">
          <mxGeometry x="60" y="290" width="10" height="1050" as="geometry" />
        </mxCell>
        <mxCell id="JCvuvtyCM9HkF3KaidBr-19" value="login" style="verticalAlign=bottom;endArrow=block;shadow=0;strokeWidth=1;entryX=0.124;entryY=0.025;entryDx=0;entryDy=0;entryPerimeter=0;" edge="1" parent="1" source="JCvuvtyCM9HkF3KaidBr-18" target="JCvuvtyCM9HkF3KaidBr-39">
          <mxGeometry relative="1" as="geometry">
            <mxPoint x="60" y="300.0000000000002" as="sourcePoint" />
            <mxPoint x="160" y="330" as="targetPoint" />
          </mxGeometry>
        </mxCell>
        <mxCell id="JCvuvtyCM9HkF3KaidBr-20" value="AssignTutorUI" style="shape=umlLifeline;perimeter=lifelinePerimeter;container=1;collapsible=0;recursiveResize=0;rounded=0;shadow=0;strokeWidth=1;" vertex="1" parent="1">
          <mxGeometry x="135" y="230" width="115" height="1090" as="geometry" />
        </mxCell>
        <mxCell id="JCvuvtyCM9HkF3KaidBr-21" value="Account=&quot;exist&quot;" style="verticalAlign=bottom;endArrow=block;shadow=0;strokeWidth=1;entryX=0;entryY=0.012;entryDx=0;entryDy=0;entryPerimeter=0;" edge="1" parent="JCvuvtyCM9HkF3KaidBr-20" target="JCvuvtyCM9HkF3KaidBr-22">
          <mxGeometry relative="1" as="geometry">
            <mxPoint x="-65" y="230" as="sourcePoint" />
            <mxPoint x="46.23999999999978" y="229.17000000000002" as="targetPoint" />
          </mxGeometry>
        </mxCell>
        <mxCell id="JCvuvtyCM9HkF3KaidBr-22" value="" style="points=[];perimeter=orthogonalPerimeter;rounded=0;shadow=0;strokeWidth=1;" vertex="1" parent="JCvuvtyCM9HkF3KaidBr-20">
          <mxGeometry x="50" y="230" width="10" height="140" as="geometry" />
        </mxCell>
        <mxCell id="JCvuvtyCM9HkF3KaidBr-23" value="" style="points=[];perimeter=orthogonalPerimeter;rounded=0;shadow=0;strokeWidth=1;" vertex="1" parent="JCvuvtyCM9HkF3KaidBr-20">
          <mxGeometry x="50" y="320" width="10" height="60" as="geometry" />
        </mxCell>
        <mxCell id="JCvuvtyCM9HkF3KaidBr-24" value="" style="points=[];perimeter=orthogonalPerimeter;rounded=0;shadow=0;strokeWidth=1;" vertex="1" parent="JCvuvtyCM9HkF3KaidBr-20">
          <mxGeometry x="50" y="230" width="10" height="50" as="geometry" />
        </mxCell>
        <mxCell id="JCvuvtyCM9HkF3KaidBr-25" value="" style="points=[];perimeter=orthogonalPerimeter;rounded=0;shadow=0;strokeWidth=1;" vertex="1" parent="JCvuvtyCM9HkF3KaidBr-20">
          <mxGeometry x="50" y="440" width="10" height="50" as="geometry" />
        </mxCell>
        <mxCell id="JCvuvtyCM9HkF3KaidBr-26" value="" style="points=[];perimeter=orthogonalPerimeter;rounded=0;shadow=0;strokeWidth=1;" vertex="1" parent="JCvuvtyCM9HkF3KaidBr-20">
          <mxGeometry x="50" y="610" width="10" height="50" as="geometry" />
        </mxCell>
        <mxCell id="JCvuvtyCM9HkF3KaidBr-27" value="DisplayClassAvailable" style="verticalAlign=bottom;endArrow=block;shadow=0;strokeWidth=1;entryX=0.124;entryY=0.025;entryDx=0;entryDy=0;entryPerimeter=0;" edge="1" parent="JCvuvtyCM9HkF3KaidBr-20">
          <mxGeometry relative="1" as="geometry">
            <mxPoint x="-66.24000000000024" y="610" as="sourcePoint" />
            <mxPoint x="50" y="610" as="targetPoint" />
          </mxGeometry>
        </mxCell>
        <mxCell id="JCvuvtyCM9HkF3KaidBr-28" value="SelectTutorAvailable" style="verticalAlign=bottom;endArrow=block;shadow=0;strokeWidth=1;entryX=0.124;entryY=0.025;entryDx=0;entryDy=0;entryPerimeter=0;" edge="1" parent="JCvuvtyCM9HkF3KaidBr-20">
          <mxGeometry relative="1" as="geometry">
            <mxPoint x="-66.24000000000024" y="540" as="sourcePoint" />
            <mxPoint x="50" y="540" as="targetPoint" />
          </mxGeometry>
        </mxCell>
        <mxCell id="JCvuvtyCM9HkF3KaidBr-29" value="" style="points=[];perimeter=orthogonalPerimeter;rounded=0;shadow=0;strokeWidth=1;" vertex="1" parent="JCvuvtyCM9HkF3KaidBr-20">
          <mxGeometry x="50" y="540" width="10" height="50" as="geometry" />
        </mxCell>
        <mxCell id="JCvuvtyCM9HkF3KaidBr-30" value="SelectClassAvailable" style="verticalAlign=bottom;endArrow=block;shadow=0;strokeWidth=1;entryX=0.124;entryY=0.025;entryDx=0;entryDy=0;entryPerimeter=0;" edge="1" parent="JCvuvtyCM9HkF3KaidBr-20">
          <mxGeometry relative="1" as="geometry">
            <mxPoint x="-66.24000000000024" y="700" as="sourcePoint" />
            <mxPoint x="50" y="700" as="targetPoint" />
          </mxGeometry>
        </mxCell>
        <mxCell id="JCvuvtyCM9HkF3KaidBr-31" value="MakeConfirmation" style="verticalAlign=bottom;endArrow=block;shadow=0;strokeWidth=1;entryX=0.124;entryY=0.025;entryDx=0;entryDy=0;entryPerimeter=0;" edge="1" parent="JCvuvtyCM9HkF3KaidBr-20">
          <mxGeometry relative="1" as="geometry">
            <mxPoint x="-66.24000000000024" y="800" as="sourcePoint" />
            <mxPoint x="50" y="800" as="targetPoint" />
          </mxGeometry>
        </mxCell>
        <mxCell id="JCvuvtyCM9HkF3KaidBr-32" value="" style="points=[];perimeter=orthogonalPerimeter;rounded=0;shadow=0;strokeWidth=1;" vertex="1" parent="JCvuvtyCM9HkF3KaidBr-20">
          <mxGeometry x="50" y="800" width="10" height="250" as="geometry" />
        </mxCell>
        <mxCell id="JCvuvtyCM9HkF3KaidBr-33" value="" style="points=[];perimeter=orthogonalPerimeter;rounded=0;shadow=0;strokeWidth=1;" vertex="1" parent="JCvuvtyCM9HkF3KaidBr-20">
          <mxGeometry x="50" y="980" width="10" height="50" as="geometry" />
        </mxCell>
        <mxCell id="JCvuvtyCM9HkF3KaidBr-34" value="" style="points=[];perimeter=orthogonalPerimeter;rounded=0;shadow=0;strokeWidth=1;" vertex="1" parent="JCvuvtyCM9HkF3KaidBr-20">
          <mxGeometry x="50" y="900" width="10" height="50" as="geometry" />
        </mxCell>
        <mxCell id="JCvuvtyCM9HkF3KaidBr-35" value="Confirm = N" style="text;html=1;strokeColor=none;fillColor=none;align=center;verticalAlign=middle;whiteSpace=wrap;rounded=0;" vertex="1" parent="JCvuvtyCM9HkF3KaidBr-20">
          <mxGeometry x="-42.620000000000005" y="1010" width="80" height="30" as="geometry" />
        </mxCell>
        <mxCell id="JCvuvtyCM9HkF3KaidBr-36" value="Alt" style="shape=umlFrame;whiteSpace=wrap;html=1;width=48;height=30;boundedLbl=1;verticalAlign=middle;align=left;spacingLeft=5;" vertex="1" parent="JCvuvtyCM9HkF3KaidBr-20">
          <mxGeometry x="-50" y="870" width="340" height="220" as="geometry" />
        </mxCell>
        <mxCell id="JCvuvtyCM9HkF3KaidBr-37" value="" style="endArrow=none;html=1;rounded=0;entryX=1.002;entryY=0.549;entryDx=0;entryDy=0;entryPerimeter=0;exitX=0;exitY=0.564;exitDx=0;exitDy=0;exitPerimeter=0;" edge="1" parent="JCvuvtyCM9HkF3KaidBr-20" source="JCvuvtyCM9HkF3KaidBr-36" target="JCvuvtyCM9HkF3KaidBr-36">
          <mxGeometry width="50" height="50" relative="1" as="geometry">
            <mxPoint x="-180" y="771" as="sourcePoint" />
            <mxPoint x="-107.62" y="740" as="targetPoint" />
            <Array as="points" />
          </mxGeometry>
        </mxCell>
        <mxCell id="JCvuvtyCM9HkF3KaidBr-38" value="VerifyAccount" style="verticalAlign=bottom;endArrow=block;shadow=0;strokeWidth=1;entryX=0.09;entryY=0.004;entryDx=0;entryDy=0;entryPerimeter=0;startArrow=none;" edge="1" parent="1" source="JCvuvtyCM9HkF3KaidBr-39" target="JCvuvtyCM9HkF3KaidBr-2">
          <mxGeometry relative="1" as="geometry">
            <mxPoint x="276.3000000000001" y="350" as="sourcePoint" />
            <mxPoint x="400" y="350" as="targetPoint" />
          </mxGeometry>
        </mxCell>
        <mxCell id="JCvuvtyCM9HkF3KaidBr-39" value="" style="points=[];perimeter=orthogonalPerimeter;rounded=0;shadow=0;strokeWidth=1;" vertex="1" parent="1">
          <mxGeometry x="185" y="350" width="10" height="50" as="geometry" />
        </mxCell>
        <mxCell id="JCvuvtyCM9HkF3KaidBr-40" value="" style="verticalAlign=bottom;endArrow=none;shadow=0;strokeWidth=1;entryX=0.09;entryY=0.004;entryDx=0;entryDy=0;entryPerimeter=0;" edge="1" parent="1" source="JCvuvtyCM9HkF3KaidBr-20" target="JCvuvtyCM9HkF3KaidBr-39">
          <mxGeometry relative="1" as="geometry">
            <mxPoint x="189.81034482758628" y="370.96000000000015" as="sourcePoint" />
            <mxPoint x="315.9000000000001" y="370.96000000000015" as="targetPoint" />
          </mxGeometry>
        </mxCell>
        <mxCell id="JCvuvtyCM9HkF3KaidBr-41" value="Assign Tutor&lt;br&gt;SD" style="shape=umlFrame;whiteSpace=wrap;html=1;width=120;height=30;boundedLbl=1;verticalAlign=middle;align=left;spacingLeft=5;" vertex="1" parent="1">
          <mxGeometry x="-40" y="140" width="1020" height="1280" as="geometry" />
        </mxCell>
        <mxCell id="JCvuvtyCM9HkF3KaidBr-42" value="" style="endArrow=open;dashed=1;html=1;dashPattern=1 3;strokeWidth=2;rounded=0;endFill=0;exitX=-0.022;exitY=0.021;exitDx=0;exitDy=0;exitPerimeter=0;entryX=1.029;entryY=0.018;entryDx=0;entryDy=0;entryPerimeter=0;" edge="1" parent="1" source="JCvuvtyCM9HkF3KaidBr-1" target="JCvuvtyCM9HkF3KaidBr-20">
          <mxGeometry width="50" height="50" relative="1" as="geometry">
            <mxPoint x="300" y="240" as="sourcePoint" />
            <mxPoint x="350" y="190" as="targetPoint" />
          </mxGeometry>
        </mxCell>
        <mxCell id="JCvuvtyCM9HkF3KaidBr-43" value="StartUI" style="text;html=1;strokeColor=none;fillColor=none;align=center;verticalAlign=middle;whiteSpace=wrap;rounded=0;" vertex="1" parent="1">
          <mxGeometry x="240" y="230" width="110" height="10" as="geometry" />
        </mxCell>
        <mxCell id="JCvuvtyCM9HkF3KaidBr-44" value=":AdminStaff" style="shape=umlLifeline;perimeter=lifelinePerimeter;container=1;collapsible=0;recursiveResize=0;rounded=0;shadow=0;strokeWidth=1;" vertex="1" parent="1">
          <mxGeometry x="500" y="230" width="100" height="240" as="geometry" />
        </mxCell>
        <mxCell id="JCvuvtyCM9HkF3KaidBr-45" value="" style="points=[];perimeter=orthogonalPerimeter;rounded=0;shadow=0;strokeWidth=1;" vertex="1" parent="JCvuvtyCM9HkF3KaidBr-44">
          <mxGeometry x="45" y="170" width="10" height="30" as="geometry" />
        </mxCell>
        <mxCell id="JCvuvtyCM9HkF3KaidBr-46" value="GetAccountDetails" style="verticalAlign=bottom;endArrow=block;shadow=0;strokeWidth=1;startArrow=none;exitX=1.083;exitY=0.771;exitDx=0;exitDy=0;exitPerimeter=0;" edge="1" parent="JCvuvtyCM9HkF3KaidBr-44" source="JCvuvtyCM9HkF3KaidBr-2">
          <mxGeometry relative="1" as="geometry">
            <mxPoint x="-120" y="169" as="sourcePoint" />
            <mxPoint x="50" y="169" as="targetPoint" />
          </mxGeometry>
        </mxCell>
        <mxCell id="JCvuvtyCM9HkF3KaidBr-47" value="DisplayMenu" style="verticalAlign=bottom;endArrow=block;shadow=0;strokeWidth=1;" edge="1" parent="1">
          <mxGeometry relative="1" as="geometry">
            <mxPoint x="200" y="470" as="sourcePoint" />
            <mxPoint x="370" y="470" as="targetPoint" />
          </mxGeometry>
        </mxCell>
        <mxCell id="JCvuvtyCM9HkF3KaidBr-48" value="ViewAssignTutor" style="verticalAlign=bottom;endArrow=block;shadow=0;strokeWidth=1;entryX=0.124;entryY=0.025;entryDx=0;entryDy=0;entryPerimeter=0;" edge="1" parent="1">
          <mxGeometry relative="1" as="geometry">
            <mxPoint x="68.75999999999954" y="670" as="sourcePoint" />
            <mxPoint x="184.99999999999977" y="670" as="targetPoint" />
          </mxGeometry>
        </mxCell>
        <mxCell id="JCvuvtyCM9HkF3KaidBr-49" value="CheckTutorAvailable" style="verticalAlign=bottom;endArrow=block;shadow=0;strokeWidth=1;entryX=0.4;entryY=0.009;entryDx=0;entryDy=0;entryPerimeter=0;exitX=0.9;exitY=0.14;exitDx=0;exitDy=0;exitPerimeter=0;" edge="1" parent="1" source="JCvuvtyCM9HkF3KaidBr-25" target="JCvuvtyCM9HkF3KaidBr-6">
          <mxGeometry relative="1" as="geometry">
            <mxPoint x="194.99999999999977" y="684.58" as="sourcePoint" />
            <mxPoint x="311.24" y="684.58" as="targetPoint" />
          </mxGeometry>
        </mxCell>
        <mxCell id="JCvuvtyCM9HkF3KaidBr-50" value=":Tutor" style="shape=umlLifeline;perimeter=lifelinePerimeter;container=1;collapsible=0;recursiveResize=0;rounded=0;shadow=0;strokeWidth=1;" vertex="1" parent="1">
          <mxGeometry x="630" y="230" width="100" height="590" as="geometry" />
        </mxCell>
        <mxCell id="JCvuvtyCM9HkF3KaidBr-51" value="" style="points=[];perimeter=orthogonalPerimeter;rounded=0;shadow=0;strokeWidth=1;" vertex="1" parent="JCvuvtyCM9HkF3KaidBr-50">
          <mxGeometry x="45" y="460" width="10" height="30" as="geometry" />
        </mxCell>
        <mxCell id="JCvuvtyCM9HkF3KaidBr-53" value="GetTutorAvailable" style="verticalAlign=bottom;endArrow=block;shadow=0;strokeWidth=1;exitX=0.9;exitY=0.209;exitDx=0;exitDy=0;exitPerimeter=0;" edge="1" parent="1" source="JCvuvtyCM9HkF3KaidBr-6" target="JCvuvtyCM9HkF3KaidBr-50">
          <mxGeometry relative="1" as="geometry">
            <mxPoint x="380" y="690" as="sourcePoint" />
            <mxPoint x="555" y="690.9949999999999" as="targetPoint" />
          </mxGeometry>
        </mxCell>
        <mxCell id="JCvuvtyCM9HkF3KaidBr-54" value="CheckClassAvailable" style="verticalAlign=bottom;endArrow=block;shadow=0;strokeWidth=1;" edge="1" parent="1">
          <mxGeometry relative="1" as="geometry">
            <mxPoint x="194.99999999999977" y="860" as="sourcePoint" />
            <mxPoint x="369.5" y="860" as="targetPoint" />
          </mxGeometry>
        </mxCell>
        <mxCell id="JCvuvtyCM9HkF3KaidBr-55" value="GetClassAvailable" style="verticalAlign=bottom;endArrow=block;shadow=0;strokeWidth=1;" edge="1" parent="1" target="JCvuvtyCM9HkF3KaidBr-60">
          <mxGeometry relative="1" as="geometry">
            <mxPoint x="380" y="880" as="sourcePoint" />
            <mxPoint x="679.5" y="880" as="targetPoint" />
          </mxGeometry>
        </mxCell>
        <mxCell id="JCvuvtyCM9HkF3KaidBr-56" value="" style="points=[];perimeter=orthogonalPerimeter;rounded=0;shadow=0;strokeWidth=1;" vertex="1" parent="1">
          <mxGeometry x="185" y="930" width="10" height="50" as="geometry" />
        </mxCell>
        <mxCell id="JCvuvtyCM9HkF3KaidBr-57" value="VerifyConfirmationSelected" style="verticalAlign=bottom;endArrow=block;shadow=0;strokeWidth=1;" edge="1" parent="1" target="JCvuvtyCM9HkF3KaidBr-1">
          <mxGeometry relative="1" as="geometry">
            <mxPoint x="194.99999999999977" y="1040" as="sourcePoint" />
            <mxPoint x="311.24" y="1040" as="targetPoint" />
          </mxGeometry>
        </mxCell>
        <mxCell id="JCvuvtyCM9HkF3KaidBr-58" value="AssignTutorToClass" style="verticalAlign=bottom;endArrow=block;shadow=0;strokeWidth=1;" edge="1" parent="1">
          <mxGeometry relative="1" as="geometry">
            <mxPoint x="195" y="1140" as="sourcePoint" />
            <mxPoint x="369.5" y="1140" as="targetPoint" />
          </mxGeometry>
        </mxCell>
        <mxCell id="JCvuvtyCM9HkF3KaidBr-59" value="Confirm = Y" style="text;html=1;strokeColor=none;fillColor=none;align=center;verticalAlign=middle;whiteSpace=wrap;rounded=0;" vertex="1" parent="1">
          <mxGeometry x="92.38" y="1130" width="80" height="30" as="geometry" />
        </mxCell>
        <mxCell id="JCvuvtyCM9HkF3KaidBr-60" value=":Class" style="shape=umlLifeline;perimeter=lifelinePerimeter;container=1;collapsible=0;recursiveResize=0;rounded=0;shadow=0;strokeWidth=1;" vertex="1" parent="1">
          <mxGeometry x="770" y="230" width="100" height="1080" as="geometry" />
        </mxCell>
        <mxCell id="JCvuvtyCM9HkF3KaidBr-61" value="" style="points=[];perimeter=orthogonalPerimeter;rounded=0;shadow=0;strokeWidth=1;" vertex="1" parent="JCvuvtyCM9HkF3KaidBr-60">
          <mxGeometry x="45" y="920" width="10" height="50" as="geometry" />
        </mxCell>
        <mxCell id="JCvuvtyCM9HkF3KaidBr-52" value="" style="points=[];perimeter=orthogonalPerimeter;rounded=0;shadow=0;strokeWidth=1;" vertex="1" parent="JCvuvtyCM9HkF3KaidBr-60">
          <mxGeometry x="45" y="650" width="10" height="50" as="geometry" />
        </mxCell>
        <mxCell id="JCvuvtyCM9HkF3KaidBr-62" value="UpdateClass" style="verticalAlign=bottom;endArrow=block;shadow=0;strokeWidth=1;" edge="1" parent="1" target="JCvuvtyCM9HkF3KaidBr-60">
          <mxGeometry relative="1" as="geometry">
            <mxPoint x="380" y="1150" as="sourcePoint" />
            <mxPoint x="679.5" y="1150" as="targetPoint" />
          </mxGeometry>
        </mxCell>
        <mxCell id="JCvuvtyCM9HkF3KaidBr-63" value="RedirectBackToLogin" style="verticalAlign=bottom;endArrow=block;shadow=0;strokeWidth=1;" edge="1" parent="1" target="JCvuvtyCM9HkF3KaidBr-8">
          <mxGeometry relative="1" as="geometry">
            <mxPoint x="200" y="560" as="sourcePoint" />
            <mxPoint x="305" y="561.6799999999998" as="targetPoint" />
          </mxGeometry>
        </mxCell>
        <mxCell id="JCvuvtyCM9HkF3KaidBr-64" value="RedirectBackToSelectClassAvailable" style="verticalAlign=bottom;endArrow=block;shadow=0;strokeWidth=1;" edge="1" parent="1">
          <mxGeometry relative="1" as="geometry">
            <mxPoint x="200" y="1230" as="sourcePoint" />
            <mxPoint x="365" y="1230" as="targetPoint" />
          </mxGeometry>
        </mxCell>
      </root>
    </mxGraphModel>
  </diagram>
</mxfile>
